<svg xmlns="http://www.w3.org/2000/svg" viewBox="0 0 64 64" aria-hidden="true">
  <circle cx="32" cy="32" r="29" fill="#ffd25f" stroke="#b45309" stroke-width="4" />
  <path d="M20 8c8 8 12 16 12 24s-4 16-12 24" fill="none" stroke="#be123c" stroke-width="4.5" stroke-linecap="round" />
  <path d="M44 8c-8 8-12 16-12 24s4 16 12 24" fill="none" stroke="#be123c" stroke-width="4.5" stroke-linecap="round" />
  <path d="M22 15l5 4M19 23l5 4M19 41l5-4M22 49l5-4" stroke="#be123c" stroke-width="2.8" stroke-linecap="round" />
  <path d="M42 15l-5 4M45 23l-5 4M45 41l-5-4M42 49l-5-4" stroke="#be123c" stroke-width="2.8" stroke-linecap="round" />
  <circle cx="25" cy="20" r="2.2" fill="#fff2b0" opacity="0.85" />
</svg>
